<?xml version="1.0" standalone="no"?>
<!DOCTYPE svg PUBLIC "-//W3C//DTD SVG 20010904//EN"
 "http://www.w3.org/TR/2001/REC-SVG-20010904/DTD/svg10.dtd">
<svg version="1.0" xmlns="http://www.w3.org/2000/svg"
 width="64.000000pt" height="64.000000pt" viewBox="0 0 64.000000 64.000000"
 preserveAspectRatio="xMidYMid meet">

<g transform="translate(0.000000,64.000000) scale(0.100000,-0.100000)"
fill="#000000" stroke="none">
<path d="M244 531 c-46 -21 -78 -57 -94 -106 -8 -24 -24 -42 -51 -57 -41 -23
-79 -84 -79 -128 0 -44 38 -105 79 -128 36 -20 52 -22 221 -22 169 0 185 2
221 22 41 23 79 84 79 128 0 44 -38 105 -79 128 -27 15 -43 33 -51 57 -16 49
-48 85 -94 106 -52 24 -100 24 -152 0z m144 -41 c37 -23 72 -75 72 -107 0 -17
11 -27 45 -42 59 -26 83 -75 65 -133 -20 -69 -47 -78 -248 -78 -191 0 -219 7
-247 60 -31 61 -7 121 61 151 33 15 44 26 44 42 0 32 35 84 72 107 42 25 94
25 136 0z"/>
<path d="M348 283 l-57 -57 -31 29 c-24 23 -33 26 -42 17 -10 -10 -3 -21 30
-54 l42 -43 70 70 c39 38 69 74 67 79 -7 22 -25 13 -79 -41z"/>
</g>
</svg>
